<svg xmlns="http://www.w3.org/2000/svg" xmlns:xlink="http://www.w3.org/1999/xlink" xmlns:inkscape="http://www.inkscape.org/namespaces/inkscape" version="1.1" width="567.39688" height="422.1974" viewBox="0 0 567.39688 422.1974">
<defs>
<clipPath id="clip_1">
<path transform="matrix(1,0,0,-1,0,422.1974)" d="M46.496877 39.48125H560.1969V384.56929H46.496877Z"/>
</clipPath>
<clipPath id="clip_2">
<path transform="matrix(1,0,0,-1,0,422.1974)" d="M46.496877 39.48125H560.1969V384.56929H46.496877Z"/>
</clipPath>
<clipPath id="clip_3">
<path transform="matrix(1,0,0,-1,0,422.1974)" d="M46.496877 39.48125H560.1969V384.56929H46.496877Z"/>
</clipPath>
<clipPath id="clip_4">
<path transform="matrix(1,0,0,-1,0,422.1974)" d="M46.496877 39.48125H560.1969V384.56929H46.496877Z"/>
</clipPath>
<clipPath id="clip_5">
<path transform="matrix(1,0,0,-1,0,422.1974)" d="M46.496877 39.48125H560.1969V384.56929H46.496877Z"/>
</clipPath>
<clipPath id="clip_6">
<path transform="matrix(1,0,0,-1,0,422.1974)" d="M46.496877 39.48125H560.1969V384.56929H46.496877Z"/>
</clipPath>
<clipPath id="clip_7">
<path transform="matrix(1,0,0,-1,0,422.1974)" d="M46.496877 39.48125H560.1969V384.56929H46.496877Z"/>
</clipPath>
<clipPath id="clip_8">
<path transform="matrix(1,0,0,-1,0,422.1974)" d="M46.496877 39.48125H560.1969V384.56929H46.496877Z"/>
</clipPath>
<clipPath id="clip_9">
<path transform="matrix(1,0,0,-1,0,422.1974)" d="M46.496877 39.48125H560.1969V384.56929H46.496877Z"/>
</clipPath>
<clipPath id="clip_10">
<path transform="matrix(1,0,0,-1,0,422.1974)" d="M46.496877 39.48125H560.1969V384.56929H46.496877Z"/>
</clipPath>
<clipPath id="clip_11">
<path transform="matrix(1,0,0,-1,0,422.1974)" d="M46.496877 39.48125H560.1969V384.56929H46.496877Z"/>
</clipPath>
<clipPath id="clip_12">
<path transform="matrix(1,0,0,-1,0,422.1974)" d="M46.496877 39.48125H560.1969V384.56929H46.496877Z"/>
</clipPath>
<clipPath id="clip_13">
<path transform="matrix(1,0,0,-1,0,422.1974)" d="M46.496877 39.48125H560.1969V384.56929H46.496877Z"/>
</clipPath>
<clipPath id="clip_14">
<path transform="matrix(1,0,0,-1,0,422.1974)" d="M46.496877 39.48125H560.1969V384.56929H46.496877Z"/>
</clipPath>
<clipPath id="clip_15">
<path transform="matrix(0,-.011,-.011,-0,15.559375,252.3899)" d="M-770-347H2106V1110H-770Z"/>
</clipPath>
<clipPath id="clip_16">
<path transform="matrix(1,0,0,-1,0,422.1974)" d="M46.496877 39.48125H560.1969V384.56929H46.496877Z"/>
</clipPath>
<clipPath id="clip_17">
<path transform="matrix(1,0,0,-1,69.84688,53.692689)" d="M-7.5-7.5H7.5V7.5H-7.5Z"/>
</clipPath>
<clipPath id="clip_18">
<path transform="matrix(1,0,0,-1,72.18188,53.692689)" d="M-7.5-7.5H7.5V7.5H-7.5Z"/>
</clipPath>
<clipPath id="clip_19">
<path transform="matrix(1,0,0,-1,74.51688,53.692689)" d="M-7.5-7.5H7.5V7.5H-7.5Z"/>
</clipPath>
<clipPath id="clip_20">
<path transform="matrix(1,0,0,-1,79.186878,53.692689)" d="M-7.5-7.5H7.5V7.5H-7.5Z"/>
</clipPath>
<clipPath id="clip_21">
<path transform="matrix(1,0,0,-1,93.19688,369.4178)" d="M-7.5-7.5H7.5V7.5H-7.5Z"/>
</clipPath>
<clipPath id="clip_22">
<path transform="matrix(1,0,0,-1,116.546878,374.44566)" d="M-7.5-7.5H7.5V7.5H-7.5Z"/>
</clipPath>
<clipPath id="clip_23">
<path transform="matrix(1,0,0,-1,163.24687,374.4041)" d="M-7.5-7.5H7.5V7.5H-7.5Z"/>
</clipPath>
<clipPath id="clip_24">
<path transform="matrix(1,0,0,-1,303.34687,374.9824)" d="M-7.5-7.5H7.5V7.5H-7.5Z"/>
</clipPath>
<clipPath id="clip_25">
<path transform="matrix(1,0,0,-1,536.84689,374.9839)" d="M-7.5-7.5H7.5V7.5H-7.5Z"/>
</clipPath>
<clipPath id="clip_26">
<path transform="matrix(.0132,0,0,-.0132,236.2087,31.628144)" d="M-770-347H2106V1110H-770Z"/>
</clipPath>
</defs>
<path transform="matrix(1,0,0,-1,0,422.1974)" d="M0 0H567.39688V422.1974H0Z" fill="#ffffff"/>
<path transform="matrix(1,0,0,-1,0,422.1974)" d="M46.496877 39.48125H560.1969V384.56925H46.496877Z" fill="#ffffff"/>
<g clip-path="url(#clip_1)">
<path transform="matrix(1,0,0,-1,0,422.1974)" stroke-width=".8" stroke-linecap="square" stroke-linejoin="round" fill="none" stroke="#b0b0b0" stroke-opacity=".3" d="M69.84688 39.48125V384.56925"/>
</g>
<path transform="matrix(1,0,0,-1,0,422.1974)" d="M69.84688 39.48125V35.98125"/>
<path transform="matrix(1,0,0,-1,0,422.1974)" stroke-width=".8" stroke-linecap="butt" stroke-linejoin="round" fill="none" stroke="#000000" d="M69.84688 39.48125V35.98125"/>
<text xml:space="preserve" transform="matrix(1 0 -0 1 66.34688 398.0755)" font-size="11" font-family="DejaVuSerif"><tspan y="0" x="0">0</tspan></text>
<g clip-path="url(#clip_2)">
<path transform="matrix(1,0,0,-1,0,422.1974)" stroke-width=".8" stroke-linecap="square" stroke-linejoin="round" fill="none" stroke="#b0b0b0" stroke-opacity=".3" d="M163.24687 39.48125V384.56925"/>
</g>
<path transform="matrix(1,0,0,-1,0,422.1974)" d="M163.24687 39.48125V35.98125"/>
<path transform="matrix(1,0,0,-1,0,422.1974)" stroke-width=".8" stroke-linecap="butt" stroke-linejoin="round" fill="none" stroke="#000000" d="M163.24687 39.48125V35.98125"/>
<text xml:space="preserve" transform="matrix(1 0 -0 1 152.74687 398.0755)" font-size="11" font-family="DejaVuSerif"><tspan y="0" x="0 6.9960005 13.992001">200</tspan></text>
<g clip-path="url(#clip_3)">
<path transform="matrix(1,0,0,-1,0,422.1974)" stroke-width=".8" stroke-linecap="square" stroke-linejoin="round" fill="none" stroke="#b0b0b0" stroke-opacity=".3" d="M256.64689 39.48125V384.56925"/>
</g>
<path transform="matrix(1,0,0,-1,0,422.1974)" d="M256.64689 39.48125V35.98125"/>
<path transform="matrix(1,0,0,-1,0,422.1974)" stroke-width=".8" stroke-linecap="butt" stroke-linejoin="round" fill="none" stroke="#000000" d="M256.64689 39.48125V35.98125"/>
<text xml:space="preserve" transform="matrix(1 0 -0 1 246.14688 398.0755)" font-size="11" font-family="DejaVuSerif"><tspan y="0" x="0 6.9960005 13.992001">400</tspan></text>
<g clip-path="url(#clip_4)">
<path transform="matrix(1,0,0,-1,0,422.1974)" stroke-width=".8" stroke-linecap="square" stroke-linejoin="round" fill="none" stroke="#b0b0b0" stroke-opacity=".3" d="M350.04689 39.48125V384.56925"/>
</g>
<path transform="matrix(1,0,0,-1,0,422.1974)" d="M350.04689 39.48125V35.98125"/>
<path transform="matrix(1,0,0,-1,0,422.1974)" stroke-width=".8" stroke-linecap="butt" stroke-linejoin="round" fill="none" stroke="#000000" d="M350.04689 39.48125V35.98125"/>
<text xml:space="preserve" transform="matrix(1 0 -0 1 339.54689 398.0755)" font-size="11" font-family="DejaVuSerif"><tspan y="0" x="0 6.9960005 13.992001">600</tspan></text>
<g clip-path="url(#clip_5)">
<path transform="matrix(1,0,0,-1,0,422.1974)" stroke-width=".8" stroke-linecap="square" stroke-linejoin="round" fill="none" stroke="#b0b0b0" stroke-opacity=".3" d="M443.44688 39.48125V384.56925"/>
</g>
<path transform="matrix(1,0,0,-1,0,422.1974)" d="M443.44688 39.48125V35.98125"/>
<path transform="matrix(1,0,0,-1,0,422.1974)" stroke-width=".8" stroke-linecap="butt" stroke-linejoin="round" fill="none" stroke="#000000" d="M443.44688 39.48125V35.98125"/>
<text xml:space="preserve" transform="matrix(1 0 -0 1 432.94688 398.0755)" font-size="11" font-family="DejaVuSerif"><tspan y="0" x="0 6.9960005 13.992001">800</tspan></text>
<g clip-path="url(#clip_6)">
<path transform="matrix(1,0,0,-1,0,422.1974)" stroke-width=".8" stroke-linecap="square" stroke-linejoin="round" fill="none" stroke="#b0b0b0" stroke-opacity=".3" d="M536.84689 39.48125V384.56925"/>
</g>
<path transform="matrix(1,0,0,-1,0,422.1974)" d="M536.84689 39.48125V35.98125"/>
<path transform="matrix(1,0,0,-1,0,422.1974)" stroke-width=".8" stroke-linecap="butt" stroke-linejoin="round" fill="none" stroke="#000000" d="M536.84689 39.48125V35.98125"/>
<text xml:space="preserve" transform="matrix(1 0 -0 1 522.84689 398.0755)" font-size="11" font-family="DejaVuSerif"><tspan y="0" x="0 6.9960005 13.992001 20.988">1000</tspan></text>
<text xml:space="preserve" transform="matrix(1 0 -0 1 273.84687 412.71614)" font-size="11" font-family="DejaVuSerif"><tspan y="-.90625" x="0 4.345215 8.765625 15.275391 20.533692 27.091797 31.512207 35.030275 41.652833 48.737306">Iteration </tspan></text>
<text xml:space="preserve" transform="matrix(1 0 -0 1 273.84687 412.71614)" font-size="11" font-family="Cmmi10"><tspan y="-.90625" x="52.233888">n</tspan></text>
<g clip-path="url(#clip_7)">
<path transform="matrix(1,0,0,-1,0,422.1974)" stroke-width=".8" stroke-linecap="square" stroke-linejoin="round" fill="none" stroke="#b0b0b0" stroke-opacity=".3" d="M46.496877 39.48125H560.1969"/>
</g>
<path transform="matrix(1,0,0,-1,0,422.1974)" d="M46.496877 39.48125H42.996877"/>
<path transform="matrix(1,0,0,-1,0,422.1974)" stroke-width=".8" stroke-linecap="butt" stroke-linejoin="round" fill="none" stroke="#000000" d="M46.496877 39.48125H42.996877"/>
<text xml:space="preserve" transform="matrix(1 0 -0 1 21.996876 386.8958)" font-size="11" font-family="DejaVuSerif"><tspan y="0" x="0 6.9960005 10.494">0.0</tspan></text>
<g clip-path="url(#clip_8)">
<path transform="matrix(1,0,0,-1,0,422.1974)" stroke-width=".8" stroke-linecap="square" stroke-linejoin="round" fill="none" stroke="#b0b0b0" stroke-opacity=".3" d="M46.496877 86.9493H560.1969"/>
</g>
<path transform="matrix(1,0,0,-1,0,422.1974)" d="M46.496877 86.9493H42.996877"/>
<path transform="matrix(1,0,0,-1,0,422.1974)" stroke-width=".8" stroke-linecap="butt" stroke-linejoin="round" fill="none" stroke="#000000" d="M46.496877 86.9493H42.996877"/>
<text xml:space="preserve" transform="matrix(1 0 -0 1 21.996876 339.4278)" font-size="11" font-family="DejaVuSerif"><tspan y="0" x="0 6.9960005 10.494">0.1</tspan></text>
<g clip-path="url(#clip_9)">
<path transform="matrix(1,0,0,-1,0,422.1974)" stroke-width=".8" stroke-linecap="square" stroke-linejoin="round" fill="none" stroke="#b0b0b0" stroke-opacity=".3" d="M46.496877 134.41735H560.1969"/>
</g>
<path transform="matrix(1,0,0,-1,0,422.1974)" d="M46.496877 134.41735H42.996877"/>
<path transform="matrix(1,0,0,-1,0,422.1974)" stroke-width=".8" stroke-linecap="butt" stroke-linejoin="round" fill="none" stroke="#000000" d="M46.496877 134.41735H42.996877"/>
<text xml:space="preserve" transform="matrix(1 0 -0 1 21.996876 291.95973)" font-size="11" font-family="DejaVuSerif"><tspan y="0" x="0 6.9960005 10.494">0.2</tspan></text>
<g clip-path="url(#clip_10)">
<path transform="matrix(1,0,0,-1,0,422.1974)" stroke-width=".8" stroke-linecap="square" stroke-linejoin="round" fill="none" stroke="#b0b0b0" stroke-opacity=".3" d="M46.496877 181.88539H560.1969"/>
</g>
<path transform="matrix(1,0,0,-1,0,422.1974)" d="M46.496877 181.88539H42.996877"/>
<path transform="matrix(1,0,0,-1,0,422.1974)" stroke-width=".8" stroke-linecap="butt" stroke-linejoin="round" fill="none" stroke="#000000" d="M46.496877 181.88539H42.996877"/>
<text xml:space="preserve" transform="matrix(1 0 -0 1 21.996876 244.49169)" font-size="11" font-family="DejaVuSerif"><tspan y="0" x="0 6.9960005 10.494">0.3</tspan></text>
<g clip-path="url(#clip_11)">
<path transform="matrix(1,0,0,-1,0,422.1974)" stroke-width=".8" stroke-linecap="square" stroke-linejoin="round" fill="none" stroke="#b0b0b0" stroke-opacity=".3" d="M46.496877 229.35344H560.1969"/>
</g>
<path transform="matrix(1,0,0,-1,0,422.1974)" d="M46.496877 229.35344H42.996877"/>
<path transform="matrix(1,0,0,-1,0,422.1974)" stroke-width=".8" stroke-linecap="butt" stroke-linejoin="round" fill="none" stroke="#000000" d="M46.496877 229.35344H42.996877"/>
<text xml:space="preserve" transform="matrix(1 0 -0 1 21.996876 197.02364)" font-size="11" font-family="DejaVuSerif"><tspan y="0" x="0 6.9960005 10.494">0.4</tspan></text>
<g clip-path="url(#clip_12)">
<path transform="matrix(1,0,0,-1,0,422.1974)" stroke-width=".8" stroke-linecap="square" stroke-linejoin="round" fill="none" stroke="#b0b0b0" stroke-opacity=".3" d="M46.496877 276.8215H560.1969"/>
</g>
<path transform="matrix(1,0,0,-1,0,422.1974)" d="M46.496877 276.8215H42.996877"/>
<path transform="matrix(1,0,0,-1,0,422.1974)" stroke-width=".8" stroke-linecap="butt" stroke-linejoin="round" fill="none" stroke="#000000" d="M46.496877 276.8215H42.996877"/>
<text xml:space="preserve" transform="matrix(1 0 -0 1 21.996876 149.55558)" font-size="11" font-family="DejaVuSerif"><tspan y="0" x="0 6.9960005 10.494">0.5</tspan></text>
<g clip-path="url(#clip_13)">
<path transform="matrix(1,0,0,-1,0,422.1974)" stroke-width=".8" stroke-linecap="square" stroke-linejoin="round" fill="none" stroke="#b0b0b0" stroke-opacity=".3" d="M46.496877 324.28956H560.1969"/>
</g>
<path transform="matrix(1,0,0,-1,0,422.1974)" d="M46.496877 324.28956H42.996877"/>
<path transform="matrix(1,0,0,-1,0,422.1974)" stroke-width=".8" stroke-linecap="butt" stroke-linejoin="round" fill="none" stroke="#000000" d="M46.496877 324.28956H42.996877"/>
<text xml:space="preserve" transform="matrix(1 0 -0 1 21.996876 102.087528)" font-size="11" font-family="DejaVuSerif"><tspan y="0" x="0 6.9960005 10.494">0.6</tspan></text>
<g clip-path="url(#clip_14)">
<path transform="matrix(1,0,0,-1,0,422.1974)" stroke-width=".8" stroke-linecap="square" stroke-linejoin="round" fill="none" stroke="#b0b0b0" stroke-opacity=".3" d="M46.496877 371.7576H560.1969"/>
</g>
<path transform="matrix(1,0,0,-1,0,422.1974)" d="M46.496877 371.7576H42.996877"/>
<path transform="matrix(1,0,0,-1,0,422.1974)" stroke-width=".8" stroke-linecap="butt" stroke-linejoin="round" fill="none" stroke="#000000" d="M46.496877 371.7576H42.996877"/>
<text xml:space="preserve" transform="matrix(1 0 -0 1 21.996876 54.619478)" font-size="11" font-family="DejaVuSerif"><tspan y="0" x="0 6.9960005 10.494">0.7</tspan></text>
<text xml:space="preserve" transform="matrix(0 -1 1 0 15.559375 289.63307)" font-size="11" font-family="DejaVuSerif"><tspan y="0" x="0 4.4110004 10.923 18.007 23.65 30.161999 42.743165 50.278165 57.362165 63.918165 71.00217 78.08617 84.70817 91.79217 95.29017 104.11217 107.632167 113.84717 120.35917 125.61717 132.65717 139.16916 146.25316 152.41316">JensenShannon Divergence</tspan></text>
<g clip-path="url(#clip_15)">
<path transform="matrix(0,-.011,-.011,-0,15.559375,252.3899)" d="M44 298H456V233H44V298Z"/>
</g>
<g clip-path="url(#clip_16)">
<path transform="matrix(1,0,0,-1,0,422.1974)" stroke-width="1.5" stroke-linecap="square" stroke-linejoin="round" fill="none" stroke="#cc79a7" d="M69.84688 368.5047H72.18188 74.51688 79.186878L93.19688 52.77959 116.546878 47.751726 163.24687 47.793264 303.34687 47.21499 536.84689 47.213495"/>
<g clip-path="url(#clip_17)">
<path transform="matrix(1,0,0,-1,69.84688,53.692689)" d="M-2.5-2.5H2.5V2.5H-2.5Z" fill="#cc79a7"/>
<path transform="matrix(1,0,0,-1,69.84688,53.692689)" stroke-width="1" stroke-linecap="butt" stroke-miterlimit="10" stroke-linejoin="miter" fill="none" stroke="#cc79a7" d="M-2.5-2.5H2.5V2.5H-2.5Z"/>
</g>
<g clip-path="url(#clip_18)">
<path transform="matrix(1,0,0,-1,72.18188,53.692689)" d="M-2.5-2.5H2.5V2.5H-2.5Z" fill="#cc79a7"/>
<path transform="matrix(1,0,0,-1,72.18188,53.692689)" stroke-width="1" stroke-linecap="butt" stroke-miterlimit="10" stroke-linejoin="miter" fill="none" stroke="#cc79a7" d="M-2.5-2.5H2.5V2.5H-2.5Z"/>
</g>
<g clip-path="url(#clip_19)">
<path transform="matrix(1,0,0,-1,74.51688,53.692689)" d="M-2.5-2.5H2.5V2.5H-2.5Z" fill="#cc79a7"/>
<path transform="matrix(1,0,0,-1,74.51688,53.692689)" stroke-width="1" stroke-linecap="butt" stroke-miterlimit="10" stroke-linejoin="miter" fill="none" stroke="#cc79a7" d="M-2.5-2.5H2.5V2.5H-2.5Z"/>
</g>
<g clip-path="url(#clip_20)">
<path transform="matrix(1,0,0,-1,79.186878,53.692689)" d="M-2.5-2.5H2.5V2.5H-2.5Z" fill="#cc79a7"/>
<path transform="matrix(1,0,0,-1,79.186878,53.692689)" stroke-width="1" stroke-linecap="butt" stroke-miterlimit="10" stroke-linejoin="miter" fill="none" stroke="#cc79a7" d="M-2.5-2.5H2.5V2.5H-2.5Z"/>
</g>
<g clip-path="url(#clip_21)">
<path transform="matrix(1,0,0,-1,93.19688,369.4178)" d="M-2.5-2.5H2.5V2.5H-2.5Z" fill="#cc79a7"/>
<path transform="matrix(1,0,0,-1,93.19688,369.4178)" stroke-width="1" stroke-linecap="butt" stroke-miterlimit="10" stroke-linejoin="miter" fill="none" stroke="#cc79a7" d="M-2.5-2.5H2.5V2.5H-2.5Z"/>
</g>
<g clip-path="url(#clip_22)">
<path transform="matrix(1,0,0,-1,116.546878,374.44566)" d="M-2.5-2.5H2.5V2.5H-2.5Z" fill="#cc79a7"/>
<path transform="matrix(1,0,0,-1,116.546878,374.44566)" stroke-width="1" stroke-linecap="butt" stroke-miterlimit="10" stroke-linejoin="miter" fill="none" stroke="#cc79a7" d="M-2.5-2.5H2.5V2.5H-2.5Z"/>
</g>
<g clip-path="url(#clip_23)">
<path transform="matrix(1,0,0,-1,163.24687,374.4041)" d="M-2.5-2.5H2.5V2.5H-2.5Z" fill="#cc79a7"/>
<path transform="matrix(1,0,0,-1,163.24687,374.4041)" stroke-width="1" stroke-linecap="butt" stroke-miterlimit="10" stroke-linejoin="miter" fill="none" stroke="#cc79a7" d="M-2.5-2.5H2.5V2.5H-2.5Z"/>
</g>
<g clip-path="url(#clip_24)">
<path transform="matrix(1,0,0,-1,303.34687,374.9824)" d="M-2.5-2.5H2.5V2.5H-2.5Z" fill="#cc79a7"/>
<path transform="matrix(1,0,0,-1,303.34687,374.9824)" stroke-width="1" stroke-linecap="butt" stroke-miterlimit="10" stroke-linejoin="miter" fill="none" stroke="#cc79a7" d="M-2.5-2.5H2.5V2.5H-2.5Z"/>
</g>
<g clip-path="url(#clip_25)">
<path transform="matrix(1,0,0,-1,536.84689,374.9839)" d="M-2.5-2.5H2.5V2.5H-2.5Z" fill="#cc79a7"/>
<path transform="matrix(1,0,0,-1,536.84689,374.9839)" stroke-width="1" stroke-linecap="butt" stroke-miterlimit="10" stroke-linejoin="miter" fill="none" stroke="#cc79a7" d="M-2.5-2.5H2.5V2.5H-2.5Z"/>
</g>
</g>
<path transform="matrix(1,0,0,-1,0,422.1974)" stroke-width=".8" stroke-linecap="square" stroke-miterlimit="10" stroke-linejoin="miter" fill="none" stroke="#000000" d="M46.496877 39.48125V384.56925"/>
<path transform="matrix(1,0,0,-1,0,422.1974)" stroke-width=".8" stroke-linecap="square" stroke-miterlimit="10" stroke-linejoin="miter" fill="none" stroke="#000000" d="M560.1969 39.48125V384.56925"/>
<path transform="matrix(1,0,0,-1,0,422.1974)" stroke-width=".8" stroke-linecap="square" stroke-miterlimit="10" stroke-linejoin="miter" fill="none" stroke="#000000" d="M46.496877 39.48125H560.1969"/>
<path transform="matrix(1,0,0,-1,0,422.1974)" stroke-width=".8" stroke-linecap="square" stroke-miterlimit="10" stroke-linejoin="miter" fill="none" stroke="#000000" d="M46.496877 384.56925H560.1969"/>
<text xml:space="preserve" transform="matrix(1 0 -0 1 168.81563 17.075013)" font-size="13.2" font-family="DejaVuSerif"><tspan y="0" x="0 5.2932 14.335201 24.9216 29.37 33.5676 38.7816 51.2952 59.743204 68.244 72.468 79.2396 87.054 91.2516 98.7096 105.4812 109.6788 113.8764 125.42641 133.3728 137.8344 143.0484 155.562 164.01 172.51079 176.73479 183.5064 191.3208 195.5184 205.1544 213.6552 220.4268 228.24121 240.7548 249.2028 253.4268 261.2412">JSD: Impulse vs. No-Impulse Ensembles</tspan></text>
<text xml:space="preserve" transform="matrix(1 0 -0 1 112.37813 31.628144)" font-size="13.2" font-family="DejaVuSerif"><tspan y="0" x="0 5.1480004 15.087601 22.902 35.4156 43.2828 47.506799 56.0076 62.779199 66.9768 75.4248 83.3712 90.1428 94.3668 99.673198 103.897197 111.355197 119.16959 134.93262 139.13022 143.35422 151.85501 156.73902 160.96302 169.4638 177.27822 185.779 193.171 200.98542 205.18302 209.40702 216.17862 220.37622 227.14783 232.45423 238.76383 247.26462 254.65662 259.963 268.4638 274.7734 282.6406 286.8646 291.0886 298.5466 302.7442 311.1922 319.0066 325.3162 337.8298 345.697 354.19779 362.01219 370.51298 375.81938">(Remains positive  influence is structurally permanent)</tspan></text>
<g clip-path="url(#clip_26)">
<path transform="matrix(.0132,0,0,-.0132,236.2087,31.628144)" d="M57 363H686L592 527H597L801 326V321L597 119H592L686 284H57V363Z"/>
</g>
</svg>
