<svg xmlns="http://www.w3.org/2000/svg" version="1.1" viewBox="0 0 1024 1024" width="1024.0pt" height="1024.0pt">
<path d="M 0.00 0.00 L 1024.00 0.00 L 1024.00 1024.00 L 0.00 1024.00 L 0.00 0.00 Z" fill="#ffffff" />
<path d="M 511.89 25.58 C 514.91 26.27 517.68 26.79 520.05 28.94 C 522.01 30.69 522.78 32.99 523.41 35.46 C 528.16 60.33 533.33 85.86 538.29 110.64 C 542.84 111.44 547.40 111.12 551.97 111.54 C 558.98 112.59 566.04 112.77 573.02 114.09 C 588.82 116.06 604.33 119.45 619.82 123.09 C 650.38 131.08 679.75 142.79 707.84 157.18 C 739.24 173.74 767.92 194.86 793.93 218.95 C 808.56 207.21 823.10 195.38 837.95 183.93 C 840.55 181.99 842.97 179.34 845.93 178.01 C 850.81 176.32 856.12 179.31 858.25 183.77 C 858.88 186.42 859.04 189.41 858.21 192.03 C 856.12 195.54 853.24 198.57 850.87 201.90 C 839.81 215.87 829.74 230.50 818.22 244.10 C 820.59 247.31 823.25 250.22 825.94 253.16 C 845.60 275.79 862.45 301.02 876.37 327.55 C 899.44 371.57 914.13 419.73 920.34 469.00 C 920.43 472.17 921.03 475.20 921.62 478.29 C 922.38 482.23 922.22 486.09 922.44 490.07 C 952.07 496.14 981.62 503.03 1011.32 508.75 C 1013.28 510.81 1015.85 513.27 1016.38 516.17 C 1016.61 519.04 1016.90 521.60 1014.81 523.86 C 1010.74 528.59 1005.10 528.45 999.45 529.59 C 973.78 535.45 947.89 540.00 922.37 546.61 C 920.36 567.46 917.02 588.20 912.53 608.65 C 901.02 659.31 880.04 707.73 850.53 750.51 C 840.55 764.70 830.33 778.50 818.23 790.98 C 829.11 805.96 840.56 820.54 851.60 835.40 C 854.13 839.03 858.00 842.61 859.27 846.87 C 859.58 852.90 854.16 858.87 847.95 858.40 C 844.22 858.00 841.56 855.45 838.87 853.11 C 830.65 846.24 821.94 840.06 813.68 833.24 C 806.69 827.96 800.14 822.12 793.03 817.02 C 790.79 819.12 788.63 821.29 786.44 823.44 C 756.28 850.04 722.36 873.05 685.74 889.79 C 667.83 898.48 648.87 905.07 629.85 910.84 L 629.02 911.22 C 615.60 914.95 601.95 917.90 588.21 920.22 C 582.44 921.11 576.82 922.51 570.96 922.84 C 565.56 923.80 560.45 924.37 554.97 924.58 C 549.47 925.63 544.10 925.57 538.53 925.42 C 538.06 927.42 537.56 929.39 537.18 931.41 C 533.94 948.75 530.04 965.99 527.11 983.34 C 525.66 988.79 524.81 994.36 523.56 999.86 C 522.68 1003.61 520.60 1007.24 516.84 1008.69 C 511.89 1010.94 505.67 1008.51 503.38 1003.63 C 501.21 999.27 501.11 993.66 500.08 988.88 C 498.27 980.90 497.12 972.80 495.32 964.83 C 492.88 953.07 490.98 941.14 488.43 929.42 C 487.87 927.94 487.61 925.65 485.60 925.61 C 480.84 925.09 475.76 925.91 470.95 925.12 C 466.68 924.34 462.39 924.61 458.16 923.51 C 452.95 922.13 447.65 923.00 442.46 921.37 C 427.13 918.95 412.02 915.45 397.10 911.20 C 387.61 908.52 378.38 905.13 369.13 901.74 C 358.49 898.17 348.39 893.51 338.14 888.99 C 303.56 872.93 271.95 851.74 242.93 827.09 C 238.88 823.89 235.30 820.19 231.21 817.06 C 215.77 830.41 199.11 842.37 183.41 855.43 C 180.74 857.68 177.46 858.98 173.94 858.09 C 170.55 857.42 168.71 854.56 166.36 852.27 C 166.30 849.80 166.28 847.34 166.33 844.87 C 180.00 827.03 193.37 808.95 206.72 790.87 C 154.61 731.77 118.93 657.31 107.96 579.13 C 107.20 573.38 105.69 567.85 105.59 562.01 C 104.91 556.83 103.87 551.93 104.32 546.64 C 102.89 546.30 101.47 545.90 100.04 545.54 C 72.33 539.87 44.77 533.52 17.03 527.97 C 13.00 527.39 10.55 523.65 8.93 520.26 C 7.52 517.21 9.73 513.86 11.48 511.46 C 13.48 508.61 17.83 508.11 20.99 507.51 C 42.10 503.19 63.10 498.50 84.23 494.28 C 90.91 492.72 97.80 491.77 104.32 489.64 C 103.78 483.58 105.88 478.01 105.77 472.00 C 105.84 468.57 106.55 465.33 107.14 461.97 C 113.04 414.13 128.53 367.28 150.83 324.61 C 163.99 299.59 180.56 276.27 198.62 254.57 C 201.60 251.26 204.58 248.02 206.88 244.17 C 195.91 231.42 186.40 217.36 175.97 204.17 C 173.34 200.70 170.48 197.38 167.97 193.82 C 166.05 191.19 165.88 187.98 166.51 184.88 C 167.91 181.49 171.28 178.07 175.02 177.53 C 178.53 176.79 181.54 179.84 184.23 181.69 C 196.10 191.20 207.87 200.82 219.96 210.04 C 224.06 213.02 227.39 216.75 231.72 219.40 C 246.62 205.27 263.00 192.57 280.05 181.14 C 304.95 164.02 331.80 149.95 359.90 138.86 C 373.73 133.01 388.05 128.76 402.46 124.62 C 414.87 120.79 427.24 118.63 440.04 116.00 C 449.64 114.30 459.35 112.82 469.07 112.11 C 474.75 111.00 480.38 111.33 486.12 111.28 C 486.97 111.38 487.66 111.08 488.19 110.40 C 489.32 101.25 491.49 92.22 493.14 83.14 C 495.30 70.89 497.83 58.69 500.23 46.47 C 500.84 41.90 501.41 37.12 502.88 32.73 C 504.75 29.23 507.98 26.48 511.89 25.58 Z" fill="#0731a4" />
<path d="M 514.25 137.60 C 514.58 142.13 515.51 146.53 516.22 150.99 C 516.55 154.83 517.21 158.56 517.93 162.34 C 522.50 195.57 527.29 228.80 531.94 262.03 C 539.17 311.38 546.03 360.77 553.66 410.06 C 556.52 428.27 558.46 446.97 562.58 464.78 C 557.27 461.70 553.08 457.29 547.49 454.61 C 536.78 449.15 524.15 444.84 512.00 445.65 C 504.35 445.10 497.27 447.10 489.98 449.05 C 485.63 450.31 481.49 452.51 477.53 454.66 C 473.53 456.76 470.37 459.93 466.47 462.20 C 466.56 459.24 467.13 456.38 467.68 453.49 C 472.69 412.63 479.37 371.69 484.79 330.93 C 485.32 325.24 486.84 319.70 487.44 314.03 C 487.78 307.57 489.54 301.35 490.09 294.90 C 493.84 272.04 496.23 249.01 500.19 226.18 C 500.83 215.01 503.46 204.11 504.54 192.96 C 506.97 176.21 509.28 159.43 512.18 142.75 C 512.60 140.81 512.59 138.99 514.25 137.60 Z" fill="#d63d0f" />
<path d="M 483.59 143.51 C 480.95 155.20 480.28 167.25 477.74 178.99 C 477.53 183.74 476.42 188.32 476.17 193.06 C 474.73 198.67 474.63 204.42 473.17 210.02 C 470.34 232.32 466.41 255.19 463.50 277.05 C 460.44 296.93 457.43 318.39 454.47 338.00 C 453.27 345.22 452.07 352.53 451.29 359.81 C 448.33 375.78 446.60 392.00 443.74 407.97 C 442.97 414.57 442.50 421.30 440.89 427.76 C 440.14 435.89 438.23 443.85 437.53 452.01 C 437.22 456.07 435.95 459.96 435.67 464.03 C 433.97 477.57 430.39 490.26 429.48 503.98 C 429.44 510.99 429.52 517.99 429.46 525.00 C 429.37 530.77 431.28 536.25 431.46 542.04 C 432.91 553.14 434.88 564.42 436.38 575.52 C 437.77 580.63 437.58 585.90 438.77 591.06 C 441.40 608.25 443.51 625.58 446.26 642.74 C 448.36 660.37 451.51 678.22 453.76 695.79 C 460.96 745.08 468.13 793.64 475.31 842.93 C 477.01 851.24 477.24 859.68 479.24 867.92 C 479.96 876.77 482.15 884.96 481.85 893.93 C 476.20 893.38 470.32 893.55 464.78 892.29 C 459.95 891.08 454.97 891.38 450.13 890.05 C 437.80 888.34 425.60 885.53 413.56 882.42 C 391.86 876.25 370.38 868.59 350.11 858.65 C 336.63 852.26 323.52 845.21 310.95 837.17 C 293.92 826.22 277.35 814.26 262.21 800.81 C 249.08 788.92 236.61 776.37 225.05 762.95 C 211.05 746.25 198.24 728.71 187.20 709.91 C 180.07 697.32 172.95 684.58 167.22 671.29 C 157.98 650.27 150.52 628.48 145.32 606.11 C 142.51 595.63 141.07 584.92 138.80 574.33 C 138.31 570.53 138.52 566.76 137.50 563.00 C 136.45 559.02 136.71 555.05 136.38 551.00 C 134.80 541.28 135.61 530.86 135.47 521.00 C 135.49 511.70 135.08 502.22 135.79 492.95 C 136.50 488.96 136.63 485.03 136.71 480.99 C 137.28 475.69 138.44 470.53 138.66 465.18 C 140.55 455.17 141.72 445.07 144.29 435.18 C 153.11 395.71 168.36 357.76 189.36 323.20 C 201.91 302.52 217.10 283.19 233.05 265.04 C 245.25 252.71 256.80 240.68 269.93 229.90 C 277.61 223.51 285.60 217.57 293.61 211.62 C 304.67 203.79 316.18 196.75 327.89 189.96 C 355.08 174.53 384.17 163.16 414.28 154.88 C 431.84 150.58 449.87 146.41 467.90 144.87 C 473.16 144.20 478.25 143.22 483.59 143.51 Z" fill="#ffffff" />
<path d="M 543.29 143.41 C 547.57 143.40 551.74 143.60 555.97 144.29 C 561.02 144.72 566.02 144.91 571.00 146.00 C 581.02 146.95 591.02 148.99 600.84 151.27 C 621.53 155.67 641.89 162.52 661.44 170.55 C 682.00 179.10 701.45 189.87 720.13 201.96 C 784.05 243.73 834.89 304.93 863.87 375.61 C 871.33 394.22 877.23 413.52 881.72 433.05 C 884.27 445.84 887.13 458.81 888.19 471.82 C 889.04 476.89 889.73 481.83 889.67 487.00 C 891.32 500.84 890.51 515.05 890.62 529.00 C 890.83 534.73 889.42 540.27 889.58 546.00 C 889.68 551.47 888.15 556.59 887.81 562.00 C 887.66 564.09 887.62 566.14 887.21 568.20 C 885.60 575.45 885.11 582.85 883.30 590.07 C 866.80 677.93 817.37 757.98 747.94 813.94 C 730.29 827.84 711.60 840.28 691.85 850.99 C 673.81 860.51 654.94 868.50 635.71 875.28 C 619.51 880.88 602.88 885.04 586.06 888.36 C 579.34 889.53 572.76 891.23 565.94 891.85 C 558.75 893.32 551.45 893.30 544.26 894.81 C 543.76 886.54 545.90 879.17 546.75 871.03 C 547.20 866.26 548.62 861.69 549.03 856.91 C 553.68 825.98 558.03 795.87 562.54 765.05 C 562.75 759.88 564.15 755.03 564.83 749.91 C 566.39 738.92 567.89 727.93 569.85 717.00 C 571.24 704.26 573.80 691.73 575.11 679.01 C 575.89 675.64 576.53 672.46 576.66 668.97 C 578.90 653.21 581.45 637.37 583.46 621.60 C 584.26 616.36 585.44 611.26 585.77 605.96 C 586.46 600.96 587.50 596.04 588.03 591.01 C 588.71 584.36 590.28 577.91 590.72 571.24 C 592.70 562.55 593.04 553.70 594.73 544.98 C 595.45 539.33 596.84 533.64 596.74 528.00 C 596.71 520.67 596.71 513.33 596.77 506.00 C 596.80 501.49 595.60 497.53 595.08 493.01 C 594.45 486.96 592.82 481.10 592.29 475.03 C 592.07 472.35 591.39 469.78 590.83 467.16 C 587.50 444.33 583.74 419.18 580.53 396.57 C 579.49 391.79 579.01 386.89 578.40 382.03 C 575.09 361.35 572.19 340.24 568.98 318.96 C 568.39 314.96 567.47 311.06 567.27 307.01 C 567.13 303.92 565.92 301.05 565.59 298.01 C 565.29 290.64 563.58 283.35 562.74 276.01 C 562.33 270.93 560.73 266.11 560.55 260.99 C 558.79 247.63 556.28 234.35 554.49 220.99 C 553.63 215.02 553.12 209.05 551.89 203.13 C 551.21 194.73 549.18 186.55 548.49 178.15 C 546.21 166.68 545.11 154.97 543.29 143.41 Z" fill="#ffffff" />
<path d="M 645.96 328.37 C 687.64 328.39 729.32 328.37 771.00 328.38 C 777.03 328.46 782.75 327.82 788.64 329.57 C 790.69 332.08 792.57 334.52 793.14 337.81 C 794.24 344.45 794.52 351.16 796.12 357.72 C 796.83 364.94 798.46 372.08 799.88 379.19 C 795.58 382.46 791.25 383.07 786.01 381.98 C 783.02 379.74 781.16 375.72 779.35 372.52 C 776.28 366.46 772.92 360.77 767.72 356.26 C 764.39 353.15 760.41 351.35 756.24 349.64 C 733.93 349.60 711.61 349.64 689.30 349.61 C 689.35 350.23 689.40 350.85 689.46 351.46 C 695.30 358.37 700.80 365.52 706.17 372.80 C 716.21 385.52 725.92 398.49 735.84 411.31 C 737.10 412.99 738.65 414.84 739.30 416.86 C 740.08 420.12 737.38 422.26 735.55 424.53 C 723.19 438.83 710.96 453.24 698.70 467.63 C 695.73 471.35 692.27 474.49 689.69 478.51 C 690.08 479.14 690.48 479.76 690.87 480.39 C 693.55 481.08 696.21 481.59 699.00 481.48 C 717.00 481.14 735.02 481.45 753.02 481.33 C 757.03 481.34 760.98 480.67 765.00 480.76 C 767.61 480.64 770.44 481.14 772.67 479.51 C 777.47 476.39 781.48 471.49 785.07 467.08 C 787.72 463.90 790.69 461.20 793.67 458.35 C 798.16 458.60 801.04 460.00 804.53 462.65 C 800.66 474.24 797.96 486.10 795.08 497.96 C 794.13 502.23 790.76 506.24 786.00 505.73 C 738.30 505.65 690.59 505.81 642.89 505.65 C 642.07 505.11 641.25 504.57 640.43 504.04 C 640.35 502.27 640.27 500.50 640.21 498.73 C 661.98 473.02 684.64 448.05 706.44 422.37 C 684.21 394.35 662.40 365.78 640.11 337.86 C 638.85 336.01 639.19 332.97 639.56 330.86 C 641.24 328.89 643.45 328.30 645.96 328.37 Z" fill="#0731a4" />
<path d="M 264.00 329.33 C 312.94 329.39 361.88 329.35 410.82 329.34 C 411.36 332.83 411.15 335.78 410.35 339.19 C 408.94 345.34 408.41 351.77 406.66 357.82 C 406.25 359.82 403.52 359.34 402.00 359.61 C 391.30 359.87 380.56 359.61 369.87 359.55 C 368.66 364.17 367.77 368.68 367.25 373.44 C 364.85 388.33 361.96 403.13 359.45 418.00 C 358.67 423.07 357.38 427.94 357.24 433.09 L 356.79 433.89 C 355.70 438.48 355.74 443.21 354.57 447.77 C 353.49 452.11 353.79 456.52 352.99 460.91 C 352.29 465.08 352.80 469.51 354.76 473.29 C 356.59 476.01 359.45 478.59 362.96 478.40 C 367.56 478.77 372.24 476.61 375.59 473.59 C 379.59 469.97 381.03 463.42 384.47 459.50 C 387.29 459.01 389.12 459.97 389.51 462.94 C 389.72 471.16 386.73 479.71 382.76 486.83 C 378.09 495.13 370.50 502.54 361.21 505.24 C 353.94 506.17 347.31 507.24 340.20 504.81 C 328.63 500.52 321.03 488.17 321.29 476.00 C 321.30 469.68 321.08 463.31 321.51 457.00 C 323.27 443.71 326.43 430.29 329.20 417.18 C 331.94 403.38 334.83 389.60 337.61 375.80 C 338.64 370.08 340.25 364.39 340.79 358.63 C 332.16 359.73 323.71 359.22 315.00 359.51 C 308.59 359.79 302.24 358.93 295.87 359.54 C 293.86 365.09 292.84 370.83 291.37 376.53 C 286.69 394.64 282.62 412.90 277.97 431.02 C 273.04 450.77 268.43 470.59 263.34 490.30 C 261.90 495.65 261.43 501.03 259.19 506.18 C 250.87 506.91 243.48 508.69 234.93 507.02 C 230.63 506.35 226.14 501.53 227.38 496.99 C 228.44 490.84 231.66 484.86 233.80 478.99 C 240.81 459.12 246.19 438.85 251.43 418.46 C 256.34 400.60 260.79 382.51 264.41 364.35 C 264.66 362.81 264.58 361.16 264.61 359.58 C 258.66 359.87 252.67 360.45 246.84 361.73 C 238.91 364.55 231.84 368.95 226.95 375.94 C 225.06 378.71 223.05 381.19 220.57 383.46 C 219.95 383.47 219.33 383.48 218.71 383.49 C 217.12 381.07 215.36 379.13 215.70 376.00 C 217.54 359.64 227.05 344.81 240.71 335.77 C 247.65 331.91 255.96 328.86 264.00 329.33 Z" fill="#0731a4" />
<path d="M 509.71 474.85 C 514.03 474.00 517.76 475.41 521.97 476.24 C 535.96 478.76 548.07 489.27 554.34 501.77 C 557.45 508.55 559.04 516.56 558.60 524.00 C 557.96 534.94 553.05 545.61 545.48 553.47 C 540.33 558.16 534.21 562.23 527.64 564.61 C 520.69 567.35 512.32 567.04 504.99 566.41 C 495.20 564.60 485.49 559.74 478.89 552.17 C 471.23 544.08 467.00 533.07 466.47 522.00 C 466.24 517.11 467.55 512.61 468.79 507.91 C 472.37 494.94 482.40 483.96 494.82 478.90 C 499.68 476.80 504.55 475.93 509.71 474.85 Z" fill="#ffffff" />
<path d="M 228.64 566.70 C 235.41 566.78 242.27 566.40 248.99 567.16 C 253.57 567.58 257.86 566.83 262.41 566.50 C 265.01 568.75 267.05 571.35 268.98 574.18 C 267.26 576.42 265.41 578.51 263.45 580.55 C 251.32 580.43 239.19 580.66 227.06 580.43 C 225.54 578.35 221.46 575.82 222.42 572.97 C 224.08 570.54 226.29 568.46 228.64 566.70 Z" fill="#0731a4" />
<path d="M 348.65 566.68 C 359.86 566.69 371.09 566.84 382.30 566.61 C 384.80 568.68 387.99 571.66 388.73 574.91 C 388.62 576.57 386.36 578.18 385.19 579.25 C 383.32 580.92 381.31 580.43 379.00 580.56 C 368.66 580.45 358.32 580.61 347.98 580.46 C 346.19 578.21 344.31 576.04 342.37 573.92 C 344.24 571.24 345.96 568.63 348.65 566.68 Z" fill="#0731a4" />
<path d="M 694.54 566.68 C 703.69 566.68 712.85 566.79 722.00 566.67 C 724.54 566.71 726.80 566.50 729.09 567.82 C 731.65 569.36 733.28 572.66 734.84 575.11 C 733.18 576.87 731.50 578.62 729.89 580.43 C 718.12 580.64 706.35 580.45 694.58 580.54 C 692.54 578.11 688.12 575.56 689.56 571.92 C 690.70 569.83 692.63 568.08 694.54 566.68 Z" fill="#0731a4" />
<path d="M 304.62 572.62 C 306.51 571.75 308.10 573.45 309.47 574.52 C 310.95 575.91 312.97 577.67 313.12 579.82 C 313.46 584.16 313.21 588.61 312.90 592.94 C 312.51 599.21 314.20 606.59 312.59 612.72 C 310.82 616.22 307.10 616.84 307.35 621.43 C 309.30 623.22 312.51 625.25 312.84 628.07 C 313.52 631.60 313.24 635.38 313.03 638.96 C 312.45 645.65 312.91 652.36 312.68 659.02 C 313.01 662.64 308.19 665.40 305.87 667.63 C 303.66 665.94 301.52 664.17 299.40 662.37 C 299.23 650.10 299.26 637.80 299.43 625.53 C 300.81 624.23 302.30 622.97 303.46 621.47 C 303.71 620.22 303.66 618.91 303.70 617.65 C 302.26 616.54 300.83 615.42 299.40 614.30 C 299.24 602.07 299.26 589.80 299.39 577.58 C 301.10 575.92 302.71 574.05 304.62 572.62 Z" fill="#0731a4" />
<path d="M 653.40 572.59 C 655.94 574.36 659.64 577.56 659.36 580.97 C 659.38 589.64 659.23 598.32 659.34 607.00 C 659.26 609.10 659.55 611.71 658.35 613.52 C 656.98 615.40 655.20 617.00 653.59 618.67 C 653.57 619.27 653.55 619.86 653.53 620.46 C 655.48 622.55 658.92 624.89 659.18 627.91 C 659.59 639.45 659.24 650.88 658.58 662.40 C 656.47 664.05 653.95 667.77 650.93 666.45 C 648.92 665.00 646.94 663.10 645.86 660.83 C 645.29 657.97 645.52 654.90 645.47 652.00 C 645.63 642.91 645.44 633.82 645.62 624.73 C 647.17 622.93 649.66 621.20 650.52 619.00 C 649.60 616.70 646.95 615.24 645.80 612.98 C 645.22 610.76 645.43 608.28 645.40 606.00 C 645.59 596.54 645.39 587.09 645.53 577.63 C 647.49 575.90 650.39 571.36 653.40 572.59 Z" fill="#0731a4" />
<path d="M 785.15 573.08 C 786.88 571.68 788.67 572.64 790.17 573.83 C 792.59 575.63 794.57 577.72 794.40 580.99 C 794.35 590.67 794.44 600.37 794.31 610.06 C 794.38 614.16 790.32 616.14 788.20 619.14 C 788.49 621.54 791.53 623.20 792.85 625.16 C 794.88 627.53 794.35 630.11 794.46 633.00 C 794.36 641.34 794.42 649.68 794.40 658.01 C 794.97 661.54 790.60 664.68 788.17 666.63 C 785.18 667.52 782.79 663.57 780.65 661.95 C 780.50 651.97 780.66 641.98 780.55 632.00 C 780.58 630.03 780.47 627.96 780.86 626.02 C 781.87 624.16 783.80 622.73 785.38 621.33 C 785.35 620.24 785.31 619.15 785.28 618.06 C 783.14 615.89 780.09 614.54 780.57 611.01 C 780.59 600.67 780.60 590.33 780.57 579.99 C 780.06 576.87 783.11 574.89 785.15 573.08 Z" fill="#0731a4" />
<path d="M 684.84 575.28 L 685.37 575.64 C 687.05 576.79 689.03 577.96 690.33 579.53 C 691.34 581.16 691.22 583.15 691.31 585.00 C 691.36 593.67 691.32 602.34 691.28 611.01 C 691.87 614.69 687.59 616.98 685.70 619.90 C 687.50 621.99 689.34 623.98 691.28 625.93 C 691.25 636.31 691.47 646.72 691.16 657.09 C 691.23 659.42 688.79 661.04 687.35 662.61 C 686.17 662.59 684.98 662.58 683.79 662.57 C 681.58 660.95 679.44 659.27 677.40 657.45 C 677.18 647.64 677.42 637.81 677.33 627.99 C 676.94 624.35 682.28 622.30 682.74 619.17 C 681.20 617.08 678.92 615.39 677.63 613.13 C 677.25 611.48 677.34 609.69 677.29 608.00 C 677.36 599.27 677.14 590.58 677.50 581.86 C 679.70 579.25 681.97 577.15 684.84 575.28 Z" fill="#0731a4" />
<path d="M 272.84 576.31 C 275.26 577.42 277.40 579.21 279.62 580.67 C 279.75 591.78 279.87 602.92 279.55 614.02 C 277.82 615.56 275.49 617.13 274.37 619.19 C 274.14 622.47 280.25 624.25 279.72 627.97 C 279.77 637.81 279.75 647.65 279.68 657.49 C 277.41 659.31 275.18 662.49 271.91 661.82 C 269.85 661.36 267.83 659.11 266.79 657.31 C 266.46 646.73 266.87 636.09 266.61 625.50 C 268.24 623.86 269.94 622.30 271.67 620.77 C 271.28 617.29 268.80 615.84 266.64 613.45 C 266.78 603.29 266.59 593.13 266.70 582.98 C 266.48 580.46 268.19 579.37 269.80 577.83 C 270.61 577.26 271.76 575.93 272.84 576.31 Z" fill="#0731a4" />
<path d="M 738.02 576.30 C 740.87 576.85 743.43 579.68 745.56 581.55 C 745.49 592.09 745.77 602.69 745.47 613.22 C 744.10 615.44 741.75 617.04 740.18 619.15 C 740.57 622.44 746.40 624.04 745.60 627.99 C 745.47 638.06 745.78 648.18 745.45 658.23 C 743.89 660.60 740.58 661.93 737.97 662.75 C 736.24 660.86 734.43 659.04 732.58 657.27 C 732.17 646.42 732.19 635.41 732.50 624.56 C 734.27 622.71 736.05 620.88 737.78 618.99 C 735.98 616.67 731.87 614.20 732.32 611.02 C 732.37 601.03 732.29 591.03 732.54 581.04 C 734.28 579.47 735.93 577.41 738.02 576.30 Z" fill="#0731a4" />
<path d="M 337.93 576.22 C 341.61 575.73 343.78 577.99 345.55 580.86 C 346.02 584.18 345.67 587.65 345.68 591.00 C 345.51 598.65 345.91 606.32 345.47 613.96 C 343.78 615.43 342.11 616.92 340.47 618.45 C 340.49 619.03 340.51 619.61 340.52 620.20 C 342.26 621.69 343.97 623.21 345.65 624.76 C 345.59 635.60 345.71 646.45 345.61 657.29 C 343.95 659.15 342.20 661.27 340.13 662.67 C 336.77 662.90 334.04 658.89 331.67 656.91 C 331.62 647.61 331.61 638.30 331.61 628.99 C 331.57 626.41 332.28 624.87 334.18 623.22 C 335.65 621.62 338.05 620.67 337.70 618.15 C 336.09 615.84 333.69 614.00 331.64 612.09 C 331.57 602.24 331.69 592.40 331.59 582.55 C 333.61 580.36 335.71 578.22 337.93 576.22 Z" fill="#0731a4" />
<path d="M 394.12 576.37 C 396.05 578.37 400.15 580.84 399.78 583.97 C 399.82 592.99 399.82 602.02 399.76 611.05 C 400.22 614.16 396.25 616.34 394.43 618.46 C 394.43 619.46 394.43 620.46 394.44 621.46 C 396.21 623.27 398.44 624.95 399.75 627.12 C 400.58 629.89 400.17 633.11 400.27 636.00 C 400.15 643.04 400.55 650.13 400.15 657.15 C 398.17 660.02 395.26 662.54 391.59 662.64 C 389.95 660.94 388.09 659.27 386.76 657.30 C 385.52 655.37 385.80 653.21 385.73 651.00 C 385.82 643.99 385.72 636.99 385.75 629.98 C 385.26 625.75 389.63 622.98 392.00 619.99 C 390.26 618.13 388.27 616.42 386.72 614.39 C 385.42 612.40 385.82 609.30 385.73 607.00 C 385.91 598.98 385.54 590.93 385.89 582.93 C 386.51 579.53 390.38 575.33 394.12 576.37 Z" fill="#0731a4" />
<path d="M 221.24 577.20 C 223.01 579.63 225.79 581.68 225.38 584.99 C 225.40 594.49 225.28 604.00 225.43 613.50 C 223.66 615.38 221.67 617.13 220.10 619.17 C 220.41 622.13 225.66 624.10 225.33 627.90 C 225.48 637.75 225.23 647.61 225.44 657.46 C 223.42 659.39 221.33 661.16 219.08 662.82 C 216.41 661.19 213.89 659.43 211.42 657.51 C 211.30 647.99 211.38 638.46 211.42 628.95 C 210.95 625.49 215.73 623.63 216.73 620.88 C 216.85 618.33 212.98 616.10 211.42 614.35 C 211.42 603.51 211.25 592.63 211.45 581.79 C 212.90 580.36 214.40 578.81 216.07 577.65 C 217.64 577.04 219.58 577.31 221.24 577.20 Z" fill="#0731a4" />
<path d="M 558.81 577.63 C 558.57 583.91 556.94 589.78 556.03 595.96 C 553.97 608.35 553.06 620.90 550.84 633.25 C 549.92 647.70 546.63 662.08 544.66 676.47 C 543.13 691.03 540.72 705.50 538.50 719.97 C 537.84 725.26 537.42 730.56 536.42 735.81 C 534.69 744.45 534.45 753.26 532.78 761.91 C 531.70 767.26 531.54 772.70 530.40 778.04 C 529.09 784.15 528.90 790.35 527.86 796.53 C 525.34 812.65 523.25 828.84 520.89 844.99 C 520.24 853.08 518.10 860.91 517.61 869.01 C 516.87 874.89 516.38 880.82 515.11 886.60 C 514.41 889.96 515.00 893.55 514.17 896.84 C 513.45 897.40 512.71 897.93 511.96 898.43 C 511.59 894.13 511.72 889.78 511.19 885.50 C 509.12 873.46 507.27 861.34 505.90 849.19 C 503.99 838.16 502.74 827.03 501.01 815.96 C 499.91 805.57 497.66 795.37 496.52 784.99 C 494.54 769.90 491.82 754.93 490.06 739.81 C 488.49 730.88 487.96 721.86 485.92 713.01 C 483.37 692.24 479.94 671.74 477.26 651.00 C 475.40 641.68 474.71 632.17 473.32 622.75 C 470.96 608.12 469.03 593.41 466.36 578.83 C 469.56 580.06 471.97 582.25 474.61 584.36 C 484.67 591.73 496.46 596.56 509.00 597.28 C 524.58 597.86 539.95 592.68 552.27 583.19 C 554.46 581.34 556.54 579.38 558.81 577.63 Z" fill="#02a3e5" />
<path d="M 229.86 658.81 C 234.21 658.49 238.67 658.69 243.00 659.15 C 250.10 659.87 257.03 658.19 264.21 658.35 C 265.89 660.20 269.33 662.17 268.57 665.04 C 267.35 667.84 264.82 670.80 262.23 672.40 C 250.82 672.68 239.33 672.56 227.91 672.42 C 226.26 669.77 223.14 666.96 222.55 663.90 C 224.45 661.37 226.50 659.08 229.86 658.81 Z" fill="#0731a4" />
<path d="M 349.08 659.13 C 353.82 658.17 359.21 658.86 364.00 659.25 C 370.58 659.75 377.34 657.82 384.13 658.54 C 386.06 659.60 388.68 662.78 388.79 665.00 C 388.19 667.86 385.31 670.40 383.43 672.57 C 371.89 672.43 360.39 672.72 348.86 672.31 C 347.01 669.84 343.80 666.98 343.38 663.85 C 344.78 662.07 346.69 659.50 349.08 659.13 Z" fill="#0731a4" />
<path d="M 694.40 659.64 C 697.38 658.69 700.89 658.70 704.00 658.69 C 712.76 658.73 721.51 658.80 730.27 658.47 C 731.63 659.92 734.59 661.83 734.52 664.00 C 733.69 667.22 730.77 670.12 728.47 672.40 C 716.94 672.58 705.39 672.60 693.87 672.45 C 692.25 670.25 690.64 668.04 688.99 665.86 C 690.40 663.42 692.00 661.20 694.40 659.64 Z" fill="#0731a4" />
</svg>